# Blender v2.78 (sub 0) OBJ File: '8gonArena.blend'
# www.blender.org
mtllib 8gonArena.mtl
o Cube.030_Cube.042
v -0.489287 0.000000 5.417037
v -0.489287 4.000000 5.417037
v -0.489287 0.000000 -5.082963
v -0.489287 4.000000 -5.082963
v 0.310713 0.000000 5.417037
v 0.310713 4.000000 5.417037
v 0.310713 0.000000 -5.082963
v 0.310713 4.000000 -5.082963
vt 0.0000 -1.0000
vt 1.0000 -1.0000
vt 1.0000 1.0000
vt 0.0000 1.0000
vt 0.0000 0.8125
vt 1.0000 0.8125
vt 1.0000 1.0000
vt 0.0000 1.0000
vt 0.0000 -1.0000
vt 1.0000 -1.0000
vt 1.0000 1.0000
vt 0.0000 1.0000
vt 0.0000 0.8125
vt 1.0000 0.8125
vt 1.0000 1.0000
vt 0.0000 1.0000
vt 0.0000 0.0000
vt 1.0000 0.0000
vt 1.0000 1.0000
vt 0.8750 1.0000
vt 0.8750 -1.0000
vn -1.0000 0.0000 0.0000
vn 0.0000 0.0000 -1.0000
vn 1.0000 0.0000 -0.0000
vn 0.0000 0.0000 1.0000
vn 0.0000 -1.0000 0.0000
vn 0.0000 1.0000 0.0000
usemtl MainWall
s off
f 1/1/1 2/2/1 4/3/1 3/4/1
f 3/5/2 4/6/2 8/7/2 7/8/2
f 7/9/3 8/10/3 6/11/3 5/12/3
f 5/13/4 6/14/4 2/15/4 1/16/4
f 3/17/5 7/18/5 5/19/5 1/16/5
f 8/20/6 4/3/6 2/2/6 6/21/6
o Cube.003_Cube.005
v 6.424264 0.000000 -5.010051
v 6.424264 1.000000 -5.010051
v 5.010051 0.000000 -6.424264
v 5.010051 1.000000 -6.424264
v 6.989949 0.000000 -5.575736
v 6.989949 1.000000 -5.575736
v 5.575736 0.000000 -6.989949
v 5.575736 1.000000 -6.989949
vt 0.0000 0.2339
vt 0.2504 0.2339
vt 0.2504 1.0000
vt 0.0000 1.0000
vt 0.6195 0.0037
vt 1.0000 0.0037
vt 1.0000 0.7574
vt 0.6195 0.7574
vt 0.0000 0.2277
vt 0.2461 0.2277
vt 0.2461 1.0000
vt 0.0000 1.0000
vt 0.0000 0.0000
vt 1.0000 0.0000
vt 1.0000 0.3693
vt 0.0000 0.3693
vt 0.0000 0.0000
vt 1.0000 0.0000
vt 1.0000 1.0000
vt 0.0000 1.0000
vt 0.0000 0.0000
vt 0.2463 0.0000
vt 0.2463 1.0000
vt 0.0000 1.0000
vn -0.7071 0.0000 0.7071
vn -0.7071 0.0000 -0.7071
vn 0.7071 0.0000 -0.7071
vn 0.7071 0.0000 0.7071
vn 0.0000 -1.0000 0.0000
vn 0.0000 1.0000 0.0000
usemtl None
s off
f 9/22/7 10/23/7 12/24/7 11/25/7
f 11/26/8 12/27/8 16/28/8 15/29/8
f 15/30/9 16/31/9 14/32/9 13/33/9
f 13/34/10 14/35/10 10/36/10 9/37/10
f 11/38/11 15/39/11 13/40/11 9/41/11
f 16/42/12 12/43/12 10/44/12 14/45/12
o Plane.002_Plane.003
v -0.806327 0.000000 -3.000000
v -8.406327 0.000000 -3.000000
v -0.806326 0.000000 3.000000
v -8.406326 0.000000 3.000000
v -8.406327 4.000000 -3.000000
v -8.406326 4.000000 3.000000
vt 0.0000 0.0000
vt 1.0000 0.0000
vt 1.0000 1.0000
vt 0.0000 1.0000
vt 0.0000 0.0000
vt 1.0000 0.0000
vt 1.0000 1.0000
vt 0.0000 0.0000
vt 0.6250 0.0000
vt 0.6250 0.3750
vt 0.0000 0.3750
vt 0.0000 0.0000
vt 0.8750 0.0000
vt 0.0000 0.8750
vt 0.7500 0.0000
vt 0.0000 0.7500
vn 0.0000 -1.0000 0.0000
vn -1.0000 0.0000 0.0000
vn 0.4657 0.8849 -0.0000
vn 0.0000 0.0000 -1.0000
vn 0.0000 0.0000 1.0000
usemtl None
s off
f 17/46/13 19/47/13 20/48/13 18/49/13
f 20/50/14 22/51/14 21/52/14 18/49/14
f 19/53/15 17/54/15 21/55/15 22/56/15
f 18/57/16 21/58/16 17/59/16
f 20/50/17 19/60/17 22/61/17
o Cylinder
v -12.544654 0.961675 -27.393122
v -12.544654 3.961675 -27.393122
v 12.529155 0.961675 -27.393120
v 12.529155 3.961675 -27.393120
v 27.271065 0.961675 -12.651216
v 27.271065 3.961675 -12.651216
v 27.271061 0.961675 12.422591
v 27.271061 3.961675 12.422591
v 12.529154 0.961675 27.164501
v 12.529154 3.961675 27.164501
v -12.544658 0.961675 27.164497
v -12.544658 3.961675 27.164497
v -27.286558 0.961675 12.422593
v -27.286558 3.961675 12.422593
v -27.286560 0.961675 -12.651212
v -27.286560 3.961675 -12.651212
v -13.569143 3.961675 13.447081
v 13.553643 3.961675 13.447085
v 13.553642 3.961675 -13.675708
v -13.569146 3.961675 -13.675709
v -13.569143 -0.038325 13.447080
v 13.553649 -0.038325 13.447084
v 13.553649 -0.038325 -13.675708
v -13.569143 -0.038325 -13.675708
vt 0.2819 0.9826
vt 0.3072 0.9293
vt 0.7114 0.9277
vt 0.7313 0.9826
vt 0.9459 0.6960
vt 0.9999 0.7202
vt 0.9281 0.2915
vt 0.9825 0.2704
vt 0.6928 0.0534
vt 0.7181 0.0001
vt 0.2886 0.0550
vt 0.2687 0.0001
vt 0.0541 0.2867
vt 0.0001 0.2625
vt 0.0719 0.6912
vt 0.0175 0.7123
vt 0.2786 0.2637
vt 0.3289 0.3320
vt 0.3514 0.6488
vt 0.2871 0.6973
vt 0.7214 0.7190
vt 0.6711 0.6507
vt 0.6486 0.3339
vt 0.7129 0.2854
vt 0.0025 0.0035
vt 4.3162 0.0041
vt 4.2938 3.9807
vt 0.0011 3.9775
vt 1.0090 3.6553
vt 6.1830 3.6461
vt 6.1788 0.0025
vt 1.0163 -0.0005
vt -0.0051 -0.0102
vt 4.3134 0.0025
vt 4.2738 3.9816
vt -0.0385 3.9657
vt 4.3122 0.0006
vt 4.3116 3.9710
vt 0.0001 3.9694
vt 0.0001 0.0001
vt 4.0030 2.2400
vt 4.0378 -0.0142
vt 0.0177 -0.0587
vt 2.8673 -0.0008
vt 0.0110 0.0008
vt 0.0088 2.5107
vt 0.0175 -0.0720
vt 4.0355 -0.0178
vt 4.0398 2.3472
vt 0.0236 -0.0658
vt 4.0398 -0.0114
vt 4.0277 2.2822
vt -2.2846 -1.6332
vt 4.5907 -1.6325
vt 4.5906 4.9213
vt -2.2848 4.9227
vn 0.0000 0.0000 -1.0000
vn 0.7071 0.0000 -0.7071
vn 1.0000 0.0000 0.0000
vn 0.7071 0.0000 0.7071
vn -0.0000 0.0000 1.0000
vn -0.7071 0.0000 0.7071
vn -1.0000 0.0000 0.0000
vn -0.7071 0.0000 -0.7071
vn 0.0000 1.0000 0.0000
vn 0.5773 0.5773 -0.5773
vn -0.5773 0.5773 -0.5773
vn -0.5773 0.5773 0.5773
vn 0.5773 0.5773 0.5773
usemtl MapGround
s off
f 23/62/18 24/63/18 26/64/18 25/65/18
f 25/65/19 26/64/19 28/66/19 27/67/19
f 27/67/20 28/66/20 30/68/20 29/69/20
f 29/69/21 30/68/21 32/70/21 31/71/21
f 31/71/22 32/70/22 34/72/22 33/73/22
f 33/73/23 34/72/23 36/74/23 35/75/23
f 35/75/24 36/74/24 38/76/24 37/77/24
f 37/77/25 38/76/25 24/63/25 23/62/25
f 39/78/20 43/79/20 46/80/20 42/81/20
f 41/82/24 45/83/24 44/84/24 40/85/24
f 42/81/22 46/80/22 45/83/22 41/82/22
f 40/85/18 44/84/18 43/79/18 39/78/18
f 36/86/26 39/87/26 42/88/26 38/89/26
f 24/90/26 42/91/26 41/92/26 26/93/26
f 28/94/26 41/95/26 40/96/26 30/97/26
f 32/98/26 40/99/26 39/100/26 34/101/26
f 30/102/26 40/103/26 32/104/26
f 26/105/26 41/106/26 28/107/26
f 34/108/26 39/109/26 36/110/26
f 38/111/26 42/112/26 24/113/26
s 1
f 43/114/27 44/115/28 45/116/29 46/117/30
